<svg width="321" height="64" viewBox="0 0 321 64" fill="none" xmlns="http://www.w3.org/2000/svg">
<path d="M302.272 38.9095H254.943L250.672 49.0726H296.928C300.904 49.0726 303.587 53.1988 302.025 56.9123L299.233 63.5539H226.801L237.566 37.9408C241.053 29.6466 249.077 24.2649 257.957 24.2649H297.964L302.157 14.2871H247.508L253.518 0H309.164C317.116 0 322.482 8.25232 319.36 15.6794L312.469 32.0737C310.726 36.2219 306.713 38.9117 302.272 38.9117V38.9095Z" fill="white"></path>
<path d="M164.823 56.5213H162.561L156.411 56.5125L153.358 63.5559H146.294L157.115 38.2539H164.16L159.061 50.1982L175.794 38.651C176.169 38.3927 176.612 38.2539 177.067 38.2539H187.659L168.911 51.2945L177.371 63.5568H169.632L164.823 56.5222" fill="white"></path>
<path d="M80.6964 63.5568H76.4484L84.8214 43.9403C84.4946 43.9403 75.5654 43.9421 75.5654 43.9421L78.0123 38.2539H103.718L102.018 42.2826C101.612 43.2454 100.456 43.9421 99.3252 43.9421H92.0109L84.8214 60.83C84.1177 62.4833 82.494 63.5568 80.6964 63.5568Z" fill="white"></path>
<path d="M144.059 38.2539H151.303L147.578 47.0127L141.278 61.8407C140.871 62.8047 139.66 63.5568 138.527 63.5568H133.254L144.059 38.2539Z" fill="white"></path>
<path d="M130.113 63.5559H122.568L119.455 57.7907H106.102L104.803 60.8336C104.099 62.4851 102.478 63.5559 100.683 63.5559H96.3779L107.174 38.2539H131.186C134.399 38.2539 136.568 41.5393 135.306 44.4962L130.652 55.4048C130.035 56.8525 128.614 57.7915 127.041 57.7915L130.113 63.5568L130.113 63.5559ZM132.473 51.0222L128.476 43.9419L108.681 43.9594L111.42 45.2859L108.502 52.1642H123.505C124.404 52.1642 125.215 51.6266 125.567 50.7991L128.475 43.9428L132.473 51.0222Z" fill="white"></path>
<path d="M208.703 48.7632H192.466L193.95 45.28L191.152 43.9403H212.862C213.758 43.9403 214.568 43.4044 214.92 42.5787L216.761 38.2539H192.644C190.852 38.2539 189.234 39.3257 188.53 40.9763L180.24 60.4356C179.611 61.9141 180.693 63.5568 182.297 63.5568H204.503C205.401 63.5568 206.211 63.0192 206.561 62.1917L208.426 57.7914H188.594L190.353 53.6915H205.118C206.012 53.6915 206.821 53.1574 207.174 52.3342L208.703 48.7632Z" fill="white"></path>
<path d="M60.6967 53.7451L58.9704 57.7914H38.5842C37.6885 57.7914 36.8798 58.3246 36.5259 59.1477L34.6318 63.5568H57.6523C61.2411 63.5568 64.4849 61.4142 65.8934 58.112L67.5811 54.1571C68.8429 51.2001 66.674 47.9146 63.4601 47.9146H48.383L49.4903 45.309L46.6733 43.9421H70.4578C71.3561 43.9421 72.1683 43.4053 72.5196 42.5778L74.3566 38.2539H51.3378C47.7402 38.2539 44.4921 40.4062 43.088 43.7198L42.1502 45.9336L41.4802 47.5122C40.2263 50.4683 42.3943 53.7459 45.6047 53.7459H60.6967H47.2511" fill="white"></path>
<path d="M63.1774 20.4459C61.7719 23.7525 58.5322 25.8986 54.9452 25.8986H34.9607C31.7517 25.8986 29.586 22.6131 30.8469 19.6553L36.6529 6.0379C38.0601 2.73744 41.2972 0.595703 44.8807 0.595703H64.8652C68.0751 0.595703 70.2399 3.8821 68.979 6.83908L63.1774 20.4459ZM56.6383 18.7724L61.9595 6.28475H40.4739L43.2218 7.65167L37.9006 20.1331H54.5814C55.4775 20.1331 56.2867 19.5973 56.6383 18.7715V18.7724Z" fill="white"></path>
<path d="M82.9545 0.60098L74.7022 20.1288L89.6447 20.1323C90.546 20.1323 91.3596 19.592 91.7089 18.7608L98.2673 3.32465C98.9703 1.6676 100.596 0.593072 102.393 0.595708L106.652 0.60098L98.2384 20.4372C96.8342 23.7487 93.5887 25.8986 89.9948 25.8986H71.6692C68.4553 25.8986 66.2884 22.61 67.5522 19.6526L74.532 3.32114C75.2367 1.67112 76.8568 0.60098 78.6489 0.60098H82.9545Z" fill="white"></path>
<path d="M148.57 25.8986H144.322L152.695 6.28212C152.369 6.28212 143.439 6.28388 143.439 6.28388L145.886 0.595703H171.592L169.892 4.62442C169.486 5.58724 168.33 6.28388 167.199 6.28388H159.885L152.695 23.1718C151.992 24.8251 150.368 25.8986 148.57 25.8986Z" fill="white"></path>
<path d="M229.769 25.8977H222.223L219.111 20.1325H205.757L204.459 23.1754C203.755 24.8269 202.133 25.8977 200.339 25.8977H196.033L206.829 0.595703H230.841C234.055 0.595703 236.223 3.88111 234.962 6.83798L230.308 17.7466C229.69 19.1943 228.269 20.1333 226.696 20.1333L229.769 25.8986V25.8977ZM232.129 13.364L228.132 6.28368L208.337 6.30125L211.076 7.62771L208.158 14.506H223.161C224.06 14.506 224.871 13.9684 225.223 13.1409L228.131 6.28456L232.129 13.364Z" fill="white"></path>
<path d="M194.346 11.105H178.071L179.559 7.6218L176.754 6.28212H198.516C199.414 6.28212 200.226 5.74624 200.578 4.92047L202.423 0.595703H178.25C176.454 0.595703 174.832 1.66745 174.126 3.31812L165.817 22.7774C165.186 24.2559 166.27 25.8986 167.878 25.8986H190.137C191.036 25.8986 191.848 25.361 192.2 24.5335L194.069 20.1331H174.19L175.954 16.0333H190.753C191.65 16.0333 192.46 15.4992 192.814 14.676L194.346 11.105Z" fill="white"></path>
<path d="M6.16915 6.01242C7.58546 2.72514 10.8211 0.594825 14.3992 0.595703L35.6659 0.598339L33.8202 4.92311C33.4681 5.74888 32.6577 6.28475 31.7603 6.28475H9.86403L12.7529 7.65167L7.43268 20.1331H27.3313L25.4523 24.537C25.1002 25.3628 24.2897 25.8986 23.3923 25.8986H4.48502C1.27307 25.8986 -0.894865 22.6175 0.362521 19.6605L6.16915 6.01242Z" fill="white"></path>
<path d="M109.124 23.1749C108.419 24.8262 106.797 25.8986 105.001 25.8986H100.693L111.495 0.600095L116.892 0.595703C117.723 0.595703 118.487 1.05419 118.875 1.78935L127.494 18.0938L133.828 3.32116C134.533 1.67517 136.151 0.607121 137.943 0.605365L142.318 0.600095L132.085 24.5381C131.733 25.3628 130.922 25.8986 130.024 25.8986H125.443C124.612 25.8986 123.851 25.4401 123.462 24.7067L115.16 9.03909L109.122 23.1749H109.124Z" fill="white"></path>
</svg>