<svg xmlns="http://www.w3.org/2000/svg" viewBox="0 0 108.73 62.98"><title>PUBG logo</title><path d="M464.7,480.73a3.4,3.4,0,0,0-1.76,1.07c-.61.73-.63.84-.58,3,0,1.25,0,3.47,0,5,0,2.68,0,2.68-.52,2.52-1-.34-3.38-.18-3.78.26s-.34.36,0,.23.39,0,.32.13a.33.33,0,0,1-.36.23c-.16,0-.26.39-.26,1.13a17.38,17.38,0,0,1-.13,2,1.4,1.4,0,0,0,.47,1.41c.55.58.73.63,2.36.63s1.79.07,1.88.39c.13.52,0,26.4-.16,26.77-.07.21-.58.29-1.57.29a4.55,4.55,0,0,0-2.15.39c-.68.41-.71.45-.73,2.23,0,3.61,0,3.75,2.91,3.75h1.91l-.07,4.35c-.09,6.13.09,6.4,4.49,6.64,6.53.34,25.65.47,28.79.21a30.07,30.07,0,0,1,3.13-.09c1.47,0,1.84,0,2.1-.26s.32-.18.32,0a.25.25,0,0,0,.23.26c.13,0,.23-.21.23-.47s-.09-.39-.23-.32-.23,0-.23-.11c0-.41.55-.13.79.41s.29.5,5.33.5c2.81,0,6.66.07,8.57.13,5.14.21,13.21-.09,13.21-.5a.28.28,0,0,1,.26-.32c.13,0,.21.16.11.34s.16.34,1.63.34c.95,0,6.19,0,11.66.07s9.84,0,9.78-.13.07-.16.27-.16.29.11.21.27c-.27.43,5.67.07,6.66-.43,1.65-.81,1.75-1.16,1.76-6.08a42.19,42.19,0,0,1,.18-4.77c.09-.27.27-.32.63-.21a9,9,0,0,0,3.59-.13c.29-.18.27-.21-.07-.23s-.39-.11-.32-.29.21-.26.32-.23c.29.07.52-3.56.27-4-.55-1-.63-1-2.7-1.13l-2.07-.11,0-13.68-.07-13.66h2c1.86,0,2,0,2.57-.63a1.36,1.36,0,0,0,.47-1.41,14.9,14.9,0,0,1-.13-2c0-.77-.09-1.18-.26-1.13a.36.36,0,0,1-.36-.26c-.07-.18,0-.23.32-.13s.36.11.07-.21-2.6-.57-3.62-.29-1.11,0-1.25-4.06c-.26-6.31-.73-7.21-3.83-7.13a9.33,9.33,0,0,1-1.91-.09,33.13,33.13,0,0,0-6-.49c-.75,0-2.07,0-2.94,0l-10,.07c-4.61,0-9.25.07-10.32.11s-2.38.09-2.94.07c-8.8-.13-16.1-.18-16.49-.09s-.5.21-.45.29,0,.18-.18.21-.23-.07-.23-.23-1.09-.27-4.65-.27-4.62.07-4.61.27-.09.29-.29.29-.29-.09-.23-.21c.27-.41-1.2-.47-11.54-.47-5.74,0-12.27,0-14.52-.09a22.89,22.89,0,0,0-5.22.19Zm46.1,6.14c31,0,41.32,0,41.32-.21s.07-.18.18,0a2.15,2.15,0,0,0,1.29.34l1.13.07,0,1.13c0,1.81.34,20.14.32,20.53-.07,1.93,0,16.51.11,21.6s.09,6.53-.13,6.66a7.34,7.34,0,0,1-1.88.11c-1.68-.07-7.81-.07-31.3,0-12.19,0-13.77.07-13.66.36s0,.34-.32.34-.41-.11-.32-.34-1.31-.32-11.41-.32c-6.32,0-13.38.09-15.68.16a22.64,22.64,0,0,1-4.12,0c0-.27-.79-.18-1.09.11s-.34.23-.45,0-1.18-.27-3-.29a20.69,20.69,0,0,1-3-.16,5.38,5.38,0,0,1-.21-1.95c0-1.52,0-1.79-.34-1.68s-.34,0-.34-.32.11-.41.34-.32.34-.89.36-8.1c.09-27.13.09-26.82-.23-26.92s-.23-.16-.07-.26c.34-.21.39-2.94.07-4a1.58,1.58,0,0,1-.09-1.11,17.38,17.38,0,0,0,.23-2.78c0-1.39,0-2.63,0-2.81s.16-.26.43-.11,19,.19,41.74.22Z" transform="translate(-457.63 -480.51)"></path><path d="M540.64,492.59l-4.83,0-.89.86a2.62,2.62,0,0,0-1,2.09,67.25,67.25,0,0,0,0,10c.11,2.57.18,5.06.13,5.56s-.09,4.67-.09,9.3l0,8.39.55.89a3.51,3.51,0,0,0,1.26,1.18c.91.39,10,.47,11.22.11a3.25,3.25,0,0,0,2.13-2.72c.23-2.2.13-19-.11-19.59l-.26-.61h-3.11c-2.1,0-3.2.09-3.38.27a5.74,5.74,0,0,0-.27,2.44V513l.68.39.68.41,0,2.54c0,1.41,0,3.67,0,5.08a9.32,9.32,0,0,0,.23,2.94,1,1,0,0,1,0,1c-.23.61-.26.61-1.95.52-1.93-.09-2.29-.23-1.93-.68s.36-16.17.16-23.63l-.11-3.65,1.63-.09c2.43-.11,2.41-.13,2.41,1.5A3.56,3.56,0,0,0,544,501c.21.21.21.27,0,.27-.5,0-.29.63.26.75a14.37,14.37,0,0,0,4.24-.21,26.24,26.24,0,0,0,.29-3.9l.09-3.72-.63-.63c-.55-.55-1-.73-2.54-1-.15,0-2.44,0-5.07,0Zm-64.82.44c-.21.21-.27,1.5-.21,4.65.07,5.08,0,4.69.32,4.27.18-.27.23-.21.23.27,0,.32-.11.63-.27.68s-.27,1-.27,3.38c0,2.83-.07,3.36-.41,3.7s-.41.81-.41,2.91a8.43,8.43,0,0,0,.16,2.38c.21-.21,1,.5,1,.91,0,.16-.07.29-.16.29a66,66,0,0,0-.26,6.92c0,3.81,0,6.92.13,6.92s.32.26.45.57c.26.55.34.57,2.52.57,3.36,0,3.17.41,3.11-7.84,0-3.61-.09-6.66-.13-6.79-.26-1-.13-1,3.09-1,3.49,0,4.8-.26,5.58-1.07l.52-.57.07-9.84c0-6.63,0-10-.18-10.3-.57-1-1.18-1.13-8.1-1.2-4.79,0-6.59,0-6.76.22Zm9,5.44c0,.23,0,2.65,0,5.4s.07,4.8.11,4.58c.18-.68.52-.41.52.43,0,.66-.07.79-.36.68s-.32,0-.23.27,0,.39-1.39.32a4.32,4.32,0,0,1-1.81-.39c-.36-.36-.39-1,0-1,.16,0,.21-1.59.11-5.19,0-2.86,0-5.27,0-5.33a5.74,5.74,0,0,1,1.59-.13c1.22,0,1.44.07,1.44.39ZM495.23,493c-.39.45-.26,5.48.16,5.4.13,0,.27.11.27.29s-.13.32-.27.27-.32.34-.36,1.16,0,1.18.23,1,.23-.11,0,.16c-.36.47-.61,26.17-.27,27.69a2.48,2.48,0,0,0,1,1.65l.75.58,5.95-.09c6.63-.09,7.1-.21,7.82-1.59.5-1,.71-8.62.58-21.94,0-5.42-.09-10.82-.09-12a5,5,0,0,0-.26-2.27.25.25,0,0,0-.36.11c-.11.39-.5.34-.5-.07s-.36-.34-1.93-.34c-3.11,0-2.88-.75-2.86,9.7,0,4.83.09,10.14.16,11.77.11,2.15.07,3-.11,3-.41,0-.29.86.16,1.11.27.18.32.29.11.41a9.84,9.84,0,0,0-.34,3.28c-.07,2.63-.13,3.17-.47,3.51s-.43.39-.71,0a1.74,1.74,0,0,0-2-.13c-.68.34-1.39-.32-1.2-1.13s.27-19.51.16-26.33l-.09-4.67-1-.52c-.66-.36-1.13-.5-1.41-.36a5.88,5.88,0,0,1-2.6,0,.9.9,0,0,0-.64.27Zm20.21,0a60.25,60.25,0,0,0-.09,9.68,10.36,10.36,0,0,1,0,2.38,4.73,4.73,0,0,0,0,1.86c.29.36,0,1.2-.41,1.2-.18,0-.27.11-.21.23s0,.39-.21.58c-.41.41-.52,3.59-.13,3.83a.72.72,0,0,1,.23.57.52.52,0,0,0,.26.5c.21.07.27,2.1.27,7.44a61,61,0,0,0,.21,7.65c.11.13.11.32,0,.36a1.72,1.72,0,0,0-.11,1l.09.92,6.06-.07c9-.07,8.5.57,8.52-10.59,0-7.5,0-7.84-.45-8.31-1.36-1.47-1.52-1.75-1.16-1.95.91-.5,1.13-1.54,1.18-4.95,0-1.81.07-5.11.11-7.32.07-3.81,0-4.06-.41-4.49-.71-.71-1.76-.84-7.92-.86-4.29,0-5.76,0-5.95.27Zm8.49,5.18c.13.23.13,1.95,0,8.6,0,1.65-.13,1.75-1.84,1.47l-1-.13-.13-2c-.07-1.09-.13-2.13-.16-2.31s.07-1.59.16-3.13l.16-2.77h1.31A2.69,2.69,0,0,1,523.93,498.11Zm-.1,15.94a25.46,25.46,0,0,1,.18,3.88c0,2,0,4.56,0,5.72a9.86,9.86,0,0,1-.11,2.29c-.18.29-2.54.18-2.93-.16s-.29-.47-.16-1.09A52.28,52.28,0,0,0,521,519c0-4.22,0-4.93.36-5.14A2.87,2.87,0,0,1,523.83,514.05Z" transform="translate(-457.63 -480.51)"></path></svg>